<svg id="Layer_1" data-name="Layer 1" xmlns="http://www.w3.org/2000/svg" viewBox="0 0 1500 1500"><defs><style>.cls-1{fill:#fff;}</style></defs><title>logo hideung</title><path d="M901.5,351.5c1.4,1.8,2.8,3.7,4.3,5.3,47.9,50.8,90.5,105.3,124.5,166.5,25.2,45.1,34.8,93.2,32,144.3-3.9,73.7-29.6,139.2-74.6,197.4-28.1,36.3-59.2,69.3-95.8,97.3-27.3,21-49.1,46.4-60.2,79.8a16,16,0,0,1-1.7,2.1c-1-6.6-2-12.3-2.7-18.1-7-62.4-14.5-124.8-20.7-187.3-6.7-66.4,4.5-130.8,24.8-194,13.3-41.6,30.8-81.5,49.8-120.9,26-53.8,32.3-110.1,19.3-168.5a28.9,28.9,0,0,1-.4-2.9Z"/><path d="M443.7,754c2.2,9.6,4,19.2,6.5,28.6,16.4,61.5,52.7,106.6,109.8,135.2,31.3,15.6,62.9,30.4,95.6,43.1,41.5,16.1,81.2,36.4,115.3,65.8,37.8,32.4,62.2,73.7,78.3,121.6l-5.6-1.2c-46.4-13.3-93.5-20-141.8-15.4-17.8,1.7-35.6,5.1-53.3,7.9-31.2,5-62.4,4.3-93.7,1.4-89.7-8.3-158.9-51.4-210.9-124.4l12.2-11c37.5-35.5,60.7-79.1,72.8-129.1,9.4-38.9,14.9-78.2,14-118.3v-3.9Z"/><path d="M517.8,517.2c1.4,10.4,2.4,20.2,4.2,29.7,8.5,43.6,25.2,83.3,58.6,113.5a282.8,282.8,0,0,0,90.6,54.9c33.9,12.9,63.2,32.1,85.2,61.3,15.9,21.1,23.2,45.9,28.6,71.3,8,37.8,11.9,76.1,14.2,114.5,1.1,16.8,2.3,33.6,3.4,50.4.2,3.1.3,6.1.5,10.3-1.9-1.6-2.9-2.3-3.8-3.2-20-19.5-41.5-37.2-65.1-52s-51.3-25.3-78.7-34.2c-36.1-11.8-71.6-25.4-104.2-45.3-45.7-27.8-72.8-69.2-86.3-120.3-10.5-39.8-8.6-79.5.4-119.3,10.4-45.9,28.2-88.8,50.8-129.8Z"/><path d="M812.9,616.2a23.5,23.5,0,0,1-.5-3.7c-1.8-40.8-17.6-75.3-46.5-103.8-17.2-16.9-35.4-32.7-52.8-49.6-29.7-28.9-50.5-62.9-58.4-104.2-7.6-39.8-2.6-78.2,12.6-115.6,17.6-43.7,43.2-82.5,73.4-118.4,11.6-13.7,24.3-26.5,36.6-39.6a47.2,47.2,0,0,1,4.3-3.9c-.7,6.2-1.3,11.3-1.7,16.4-2.9,35.7,8,67.9,26.6,97.6,10.9,17.3,22.8,34.1,35.1,50.4,28,37.3,41.5,79.5,43.2,125.6,1.1,26.3.7,52.7-3.2,78.8-4.5,29.2-16.5,55.7-29,82.1s-23.6,51.5-35.2,77.3c-1.5,3.4-2.5,7.1-3.7,10.7Z"/><path d="M635.8,292.9c0,13.4-.4,25.7.1,37.9,1,26.1,3.3,52,13.3,76.4,13.9,34,36.4,61.5,64.9,84.2,20.9,16.8,40.1,35.2,53.9,58.4,20.6,34.7,27.5,72.2,23.3,112s-7.9,76.6-7.9,115.1a21.4,21.4,0,0,1-.5,2.9c-.7-1.4-1.2-2-1.4-2.6-6-24-21.6-40.4-42.6-51.7-16.4-8.8-33.9-15.3-50.6-23.6-20.3-10.1-41-19.6-60-31.7-37.2-23.5-58.6-59-70-100.6-17.7-64.8-11-127.3,18.8-187.5A461.1,461.1,0,0,1,633,295.9Z"/><path d="M1072.6,725.3c1.1,25.1,1.9,50.2,3.5,75.3,2.8,42.6,6.6,85.1,16.2,126.8,9,38.6,28.8,70.7,59.5,95.9,2.8,2.3,3,3.9,1.6,7-8.4,18.6-17.8,36.5-30.3,52.7-24.2,31.6-55.7,48.2-95.9,47.9-34.2-.2-68.3,2-101.8,9-15.9,3.3-31.5,7.4-47.2,11.2-2.6.7-4.5,1.1-6.3-1.8-10.5-17.3-18.6-35.4-21.4-55.6-4.1-28.5,4.1-53.7,22.3-75.7,13.6-16.5,28.4-31.8,45.5-44.8,43.9-33.3,78.2-75.1,106.8-121.8,15.1-24.6,30.1-49.4,38.2-77.3,4.1-14.1,5.6-29,8.3-43.6a47.1,47.1,0,0,0,.5-5.4Z"/><path d="M416.8,1191h56.7c9,.1,18.2-.5,26.9,1.2,20.9,4,36.6,15.6,42.7,36.6,5.3,17.8.8,33.9-13.6,46.5a32.3,32.3,0,0,1-2.7,2.3c.4.5.5,1.1.9,1.3,17.7,10.1,25.6,25.6,24,45.7-1.9,22.2-12.8,38.1-34.2,45.3a74.4,74.4,0,0,1-22.5,3.9c-25.9.5-51.9.2-78.2.2ZM453,1337c14.6,0,28.8.8,42.8-.2,10.6-.7,17.3-8.7,17.4-18s-5.5-18.3-16.8-19.5c-14.3-1.4-28.8-1.2-43.4-1.7Zm0-75c10.8,0,21.1.1,31.4-.1a32.2,32.2,0,0,0,9.8-1.3c6.2-1.9,10.9-5.6,12.1-12.5a16.4,16.4,0,0,0-7.3-16.9c-2.6-1.8-6-3.5-9.1-3.6-12.2-.5-24.5-.2-36.9-.2Z"/><path d="M931,1373.6V1191h62.8c50.5,0,85.6,33.6,88.1,84.1,1.3,27-4.8,51.7-23.5,72.1-15.6,17.1-35.5,25.8-58.4,26.6s-44.6.2-67,.2A8.8,8.8,0,0,1,931,1373.6Zm36-35.7h29.7a44.3,44.3,0,0,0,8.8-1.2c21.8-4.8,36.9-22.7,40.1-47.4,3.4-27.4-13.6-54.2-39.7-59.5-12.5-2.6-25.7-1.7-38.9-2.4Z"/><path d="M898.3,1374c-12.9,0-24.9.1-36.9-.1-1.4,0-3.4-1.7-4.1-3.1-4.2-9.1-8.2-18.2-12-27.4-1.1-2.6-2.4-3.4-5.2-3.4h-62c-2.7,0-4.1.8-5.2,3.4-3.7,9.1-7.6,18.1-11.6,27-.6,1.5-2.2,3.4-3.4,3.5-12.2.2-24.5.1-37.6.1,27.1-62.1,53.9-123.5,80.7-184.7l1.3-.3c14.1-.6,14.1-.6,19.7,12.3q37.1,83.9,74.2,167.6Zm-70.8-70.3c-6.1-13.9-12.1-27.3-18.5-41.9-6.4,14.6-12.4,28-18.5,41.9Z"/><path d="M629.7,1373.8H593.6V1191.3l4.1-.3h70.5c27.3.2,52.4,23.3,54.7,50.2,2.6,30.3-16.9,56.9-45.5,61.8a74.9,74.9,0,0,1-13.4,1c-11.1.2-22.3.1-34.3.1v69.7Zm.4-145.9v39.2c13.3,0,26.3.8,39.2-.3,10.7-.9,17.7-9.7,17.6-19.6s-6.7-18.1-17.5-19C656.5,1227.1,643.5,1227.9,630.1,1227.9Z"/><path class="cls-1" d="M453,1337v-39.4c14.6.5,29.1.3,43.4,1.7,11.3,1.2,17,9,16.8,19.5s-6.8,17.3-17.4,18C481.8,1337.8,467.6,1337,453,1337Z"/><path class="cls-1" d="M453,1262v-34.6c12.4,0,24.7-.3,36.9.2,3.1.1,6.5,1.8,9.1,3.6a16.4,16.4,0,0,1,7.3,16.9c-1.2,6.9-5.9,10.6-12.1,12.5a32.2,32.2,0,0,1-9.8,1.3C474.1,1262.1,463.8,1262,453,1262Z"/><path class="cls-1" d="M967,1337.9V1227.4c13.2.7,26.4-.2,38.9,2.4,26.1,5.3,43.1,32.1,39.7,59.5-3.2,24.7-18.3,42.6-40.1,47.4a44.3,44.3,0,0,1-8.8,1.2Z"/><path class="cls-1" d="M827.5,1303.7h-37c6.1-13.9,12.1-27.3,18.5-41.9C815.4,1276.4,821.4,1289.8,827.5,1303.7Z"/><path class="cls-1" d="M630.1,1227.9c13.4,0,26.4-.8,39.3.3,10.8.9,17.5,9.3,17.5,19s-6.9,18.7-17.6,19.6c-12.9,1.1-25.9.3-39.2.3Z"/></svg>